<svg width="23" height="17" viewBox="0 0 23 17" fill="none" xmlns="http://www.w3.org/2000/svg">
<path d="M19.971 0.439868C20.1075 0.3006 20.2704 0.189963 20.4502 0.114433C20.6299 0.0389037 20.823 0 21.018 0C21.213 0 21.406 0.0389037 21.5858 0.114433C21.7656 0.189963 21.9285 0.3006 22.065 0.439868C22.637 1.01787 22.645 1.95187 22.085 2.53987L10.259 16.5199C10.1247 16.6673 9.96178 16.7858 9.78014 16.8681C9.5985 16.9504 9.40198 16.9948 9.2026 16.9985C9.00321 17.0023 8.80517 16.9653 8.62057 16.8899C8.43596 16.8145 8.26869 16.7022 8.12898 16.5599L0.932984 9.26787C0.655458 8.98484 0.5 8.60426 0.5 8.20787C0.5 7.81148 0.655458 7.4309 0.932984 7.14787C1.06948 7.0086 1.23238 6.89796 1.41216 6.82243C1.59194 6.7469 1.78498 6.708 1.97998 6.708C2.17499 6.708 2.36803 6.7469 2.54781 6.82243C2.72759 6.89796 2.89049 7.0086 3.02698 7.14787L9.13098 13.3339L19.931 0.483868L19.971 0.439868Z" fill="#34C759"/>
</svg>
